<svg
  width="96"
  height="22"
  viewBox="0 0 96 22"
  fill="none"
  xmlns="http://www.w3.org/2000/svg"
>
  <path
    d="M12.736 0.979999L4.224 10.668C5.36267 12.0307 6.66933 13.552 8.144 15.232C9.63733 16.912 10.5987 17.948 11.028 18.34C11.476 18.732 11.8213 19.0307 12.064 19.236C12.3253 19.4227 12.7173 19.6373 13.24 19.88C13.7627 20.104 14.3227 20.2533 14.92 20.328L14.892 21.224C13.772 21.2053 12.848 21.0373 12.12 20.72C11.392 20.384 10.7573 19.9547 10.216 19.432C9.67467 18.8907 8.48933 17.584 6.66 15.512C4.84933 13.4213 3.48667 11.8253 2.572 10.724L11.168 0.979999H12.736ZM2.04 0.979999V21H0.696V0.979999H2.04ZM19.1233 14.056L16.2393 21H14.8113L23.2393 0.839999H24.0233L32.4793 21H30.9673L28.0833 14.056H19.1233ZM23.5473 3.08C23.5286 3.09867 23.4913 3.21067 23.4353 3.416C23.1739 4.21867 22.9219 4.9 22.6793 5.46L19.5993 12.908H27.6073L24.5273 5.488C23.8739 4.06933 23.5473 3.26667 23.5473 3.08ZM46.0897 19.964H45.3337L39.4817 5.796C39.1457 5.012 38.875 4.32133 38.6697 3.724L38.3897 5.852L36.0937 21H34.7217L38.0257 0.812H38.8097L45.0537 15.652C45.371 16.3427 45.623 16.996 45.8097 17.612C45.8657 17.4067 46.155 16.7627 46.6777 15.68L53.6497 0.812H54.4057L57.4577 21H56.0577L53.8737 5.796C53.7244 4.844 53.6497 4.12533 53.6497 3.64C53.631 3.65867 53.5844 3.752 53.5097 3.92C53.4537 4.06933 53.3417 4.33067 53.1737 4.704C53.0244 5.05867 52.8657 5.432 52.6977 5.824L46.0897 19.964ZM64.0217 14.056L61.1377 21H59.7097L68.1377 0.839999H68.9217L77.3777 21H75.8657L72.9817 14.056H64.0217ZM68.4457 3.08C68.4271 3.09867 68.3897 3.21067 68.3337 3.416C68.0724 4.21867 67.8204 4.9 67.5777 5.46L64.4977 12.908H72.5057L69.4257 5.488C68.7724 4.06933 68.4457 3.26667 68.4457 3.08ZM82.5881 14.056L79.7041 21H78.2761L86.7041 0.839999H87.4881L95.9441 21H94.4321L91.5481 14.056H82.5881ZM87.0121 3.08C86.9935 3.09867 86.9561 3.21067 86.9001 3.416C86.6388 4.21867 86.3868 4.9 86.1441 5.46L83.0641 12.908H91.0721L87.9921 5.488C87.3388 4.06933 87.0121 3.26667 87.0121 3.08Z"
    fill="black"
  />
</svg>
